<?xml version="1.0" encoding="UTF-8"?>
<svg id="Capa_2" data-name="Capa 2" xmlns="http://www.w3.org/2000/svg" viewBox="0 0 614.38 743.17">
  <defs>
    <style>
      .cls-1 {
        fill: #11375b;
      }

      .cls-2 {
        fill: #b5814b;
      }
    </style>
  </defs>
  <g id="Capa_1-2" data-name="Capa 1">
    <path class="cls-2" d="m.2,372.24c0-60.78.06-121.56-.11-182.33-.02-5.48,3.35-7.64,7.01-9.88,15.07-9.19,30.23-18.22,45.31-27.38,38.98-23.68,77.94-47.4,116.92-71.08,32.15-19.53,64.32-39.04,96.49-58.55,11.53-6.99,23.25-13.69,34.54-21.05,4.21-2.74,7.19-2.49,11.23,0,26.35,16.26,52.81,32.33,79.27,48.41,59.61,36.21,119.22,72.41,178.88,108.53,12.53,7.58,25.19,14.96,37.97,22.11,4.75,2.66,6.67,5.84,6.66,11.47-.16,120.04-.16,240.09.01,360.13,0,5.47-2,8.39-6.45,11.04-49.61,29.57-99.16,59.25-148.67,88.98-49.09,29.48-98.16,58.99-147.12,88.68-4.2,2.55-7.26,2.41-11.31-.05-67.14-40.82-134.35-81.53-201.55-122.24-31.32-18.97-62.64-37.95-94.07-56.74C1.19,559.89,0,557.03,0,552.57c.12-60.11.08-120.22.08-180.33.04,0,.08,0,.12,0Zm25.47-.33h-.07c0,55.61.04,111.22-.09,166.83,0,4.14,1.14,6.68,4.76,8.86,22.55,13.52,44.94,27.32,67.44,40.92,52.42,31.68,104.88,63.29,157.32,94.94,15.53,9.37,30.99,18.86,46.6,28.1,2.14,1.27,4.11,3.84,7.57,1.76,39.62-23.9,79.35-47.62,118.98-71.49,51.33-30.93,102.54-62.05,153.98-92.79,5.02-3,6.72-6.1,6.71-11.78-.17-109.22-.22-218.44.03-327.67.02-7.17-2.38-11.05-8.28-14.6-41.94-25.21-83.71-50.7-125.54-76.1-47.66-28.94-95.37-57.8-142.92-86.93-4.52-2.77-7.76-2.64-12.1,0-69.34,42.3-138.76,84.47-208.14,126.69-20.48,12.46-40.91,24.98-61.38,37.45-2.49,1.52-4.58,3.05-4.55,6.51.2,31.63.41,63.25-.24,94.88-.51,24.8-.1,49.61-.1,74.42Z"/>
    <path class="cls-1" d="m390.24,544.38c11.55-7.03,22.18-13.5,32.8-19.97,18.75-11.44,37.46-22.94,56.28-34.28,3.23-1.95,4.51-4.27,4.45-8.08-.3-19.8-.46-39.61-.38-59.41.02-3.83-1.54-4.39-4.71-4.36-12.65.1-25.31-.09-37.96.11-4.59.07-6.03-1.65-5.99-6.18.18-19.97.15-39.95-.03-59.93-.04-4.38,1.09-6.2,5.88-6.18,35.13.13,70.27,0,105.4-.04,6.77,0,7.21.39,7.2,6.98-.02,55.27-.11,110.53,0,165.8,0,4.95-1.77,7.66-6,10.27-56.38,34.76-113.3,68.63-170.09,102.72-17.55,10.53-35.54,20.31-52.77,31.38-3.26,2.09-4.49,1.13-4.47-2.51.05-8.32.04-16.65.03-24.97-.02-55.77-.06-111.53-.05-167.3,0-1.76-.85-4.14.84-5.15,2.17-1.29,3.51,1.24,5.03,2.31,20.29,14.24,40.5,28.61,60.85,42.78,2.69,1.87,3.7,3.98,3.69,7.03-.05,9.3-.02,18.61-.02,28.98Z"/>
    <path class="cls-1" d="m319.91,196.15c0-36.46-.01-72.92.03-109.38,0-1.92-.89-4.45.95-5.63,2.26-1.44,3.92,1.05,5.65,2.1,33.46,20.23,66.88,40.55,100.33,60.8,37.01,22.41,74.06,44.76,111.09,67.14.28.17.56.36.85.53,16.8,10,14.08,5.27,14.25,25.56.16,18.64.02,37.29,0,55.94,0,1.45.46,3.16-1.03,4.13-1.39.9-2.51-.31-3.6-.97-38.07-23.22-76.16-46.41-114.19-69.71-13.05-8-25.93-16.27-38.91-24.39-1.35-.84-2.66-2.68-4.36-1.66-1.61.96-.89,3.05-.89,4.65-.02,50.94,0,101.89-.02,152.83,0,2.83-.04,5.66-.27,8.48-.14,1.71,1.07,4.12-1.05,5-2.25.93-3.42-1.53-4.85-2.76-7.55-6.53-15.12-13.05-22.52-19.74-12.34-11.16-24.48-22.56-36.91-33.62-3.47-3.08-4.54-6.44-4.52-10.92.14-36.13.08-72.25.08-108.38-.04,0-.07,0-.11,0Z"/>
    <path class="cls-1" d="m288.42,563.54c0,31.13.01,62.25-.03,93.38,0,1.76.82,4.04-.9,5.14-1.97,1.26-3.24-1.08-4.69-1.96-20.92-12.67-41.78-25.44-62.73-38.06-2.32-1.4-3.21-3.01-3.21-5.61.04-33.29.05-66.58-.01-99.87,0-2.67,1.2-4.38,3.21-5.8,21.33-15.08,42.67-30.15,64-45.23,2.82-1.99,4.26-1.39,4.3,2.14.02,1.66.03,3.33.03,4.99,0,30.29,0,60.59,0,90.88h.03Z"/>
    <path class="cls-1" d="m282.61,319.17s3.83-3.22,5.11-7.18c.67-2.06.67-3.76.67-4.33-.12-73.77-.03-147.54-.04-221.3,0-1.72.85-4.03-1.18-4.99-1.9-.9-3.35,1.03-4.84,1.94-19.19,11.71-38.21,23.69-57.56,35.11-5.73,3.38-7.87,7.18-7.85,13.91.19,73.1.04,146.2-.03,219.3,0,6.72-.08,6.92-6.7,5.31-21.66-5.26-43.27-10.71-64.92-16.01-12.17-2.98-12.1-2.91-12.07-15.41.1-43.79.13-87.59.19-131.38,0-4.83.02-9.66.06-14.49.03-4.16-1.21-5.6-6.72-1.38-17.19,13.17-35.59,24.7-55.24,33.8-7.15,3.31-9.57,7.09-9.56,13.95.17,97.41.12,194.83.11,292.24,0,1.5.06,3,.03,4.5-.04,2.4.97,4.01,3.09,5.24,21.03,12.18,41.17,25.83,62.4,37.68,4.59,2.57,4.94,2.48,4.97-2.64.24-38.79.52-77.58.64-116.38.03-10.48-.32-20.97-.68-31.45-.15-4.28,1.31-5.11,5.37-4,6.41,1.75,61.1,12.83,61.98,12.77,4.34-.26,6.86-10.87,7.52-13.35,4.06-15.15,20.59-32.74,38.53-51.81,12.34-13.13,22.9-28.11,36.72-39.67Z"/>
    <path class="cls-2" d="m404.37,426.24c.13-7.28-2.61-12-8.03-16.5-29.06-24.13-58.09-48.32-86.23-73.53-3.93-3.52-6.51-3.66-10.41-.28-21.62,18.75-43.41,37.32-65.14,55.96-7.7,6.6-15.39,13.22-23.55,20.23,0,0,0,0,0,0-5.66,4.86-7.59,10.82-8.16,15.29.16.73.05,53.81.07,71.96,0,1.27-.5,2.86.93,3.63,1.45.78,2.46-.56,3.51-1.28,2.33-1.6,4.66-3.21,6.9-4.93,29.28-22.54,58.56-45.08,87.78-67.68,1.95-1.5,3.25-1.48,5.2.04,8.51,6.68,17.15,13.19,25.75,19.76,21.69,16.58,43.37,33.16,65.08,49.7,1.4,1.06,2.85,2.9,4.79,2.02,2.06-.93,1.28-3.2,1.29-4.95.05-23.15-.18-46.3.23-69.43Z"/>
  </g>
</svg>